<svg version="1.1" xmlns="http://www.w3.org/2000/svg" viewBox="0 0 172 172"><g transform="translate(-23.2,-17.2) scale(1.2,1.2)"><g fill="#009ef7"><path d="M134.375,155.875c-2.9889,-0.0089 -5.91167,-0.88051 -8.41725,-2.51012v0l-31.93825,-20.468c-1.59521,-1.05564 -3.66691,-1.05564 -5.26212,0l-31.93287,20.46263c-4.78454,3.1282 -10.90851,3.34758 -15.90462,0.56975c-5.40222,-3.01816 -8.72675,-8.74386 -8.66988,-14.93175v-106.0165c-0.1862,-9.10136 7.02433,-16.63876 16.125,-16.856h86c9.10067,0.21724 16.3112,7.75464 16.125,16.856v106.0165c0.06407,6.18833 -3.25435,11.91827 -8.65375,14.9425c-2.28884,1.26108 -4.858,1.92648 -7.47125,1.935zM131.75738,144.31875c1.4784,0.99352 3.39186,1.06431 4.93963,0.18275c1.9577,-1.12843 3.13215,-3.24576 3.053,-5.504v-106.0165c0.18429,-3.16436 -2.21282,-5.88748 -5.375,-6.106h-86c-3.16218,0.21852 -5.55929,2.94164 -5.375,6.106v106.0165c-0.079,2.26241 1.10017,4.38285 3.06375,5.50937c1.54817,0.88765 3.46657,0.81675 4.945,-0.18275l31.93288,-20.47337c5.12817,-3.3268 11.73321,-3.3268 16.86138,0z"/><path d="M112.875,53.75h-43c-2.96853,0 -5.375,-2.40647 -5.375,-5.375c0,-2.96853 2.40647,-5.375 5.375,-5.375h43c2.96853,0 5.375,2.40647 5.375,5.375c0,2.96853 -2.40647,5.375 -5.375,5.375z"/></g></g></svg>