<svg version="1.1" xmlns="http://www.w3.org/2000/svg" viewBox="0 0 172 172"><path d="M86,41.28c-45.86219,0 -81.7,42.4625 -81.7,42.4625c-1.12875,1.29 -1.12875,3.225 0,4.515c0,0 35.83781,42.4625 81.7,42.4625c45.86219,0 81.7,-42.4625 81.7,-42.4625c1.12875,-1.29 1.12875,-3.225 0,-4.515c0,0 -35.83781,-42.4625 -81.7,-42.4625zM86,48.16c9.04344,0 17.68375,1.86781 25.6925,4.73c5.375,6.07375 8.7075,14.01531 8.7075,22.79c0,19.04094 -15.35906,34.4 -34.4,34.4c-19.04094,0 -34.4,-15.35906 -34.4,-34.4c0,-8.77469 3.225,-16.71625 8.6,-22.79c8.03563,-2.87562 16.72969,-4.73 25.8,-4.73zM48.805,57.9425c-2.58,5.375 -4.085,11.395 -4.085,17.7375c0,22.76313 18.51688,41.28 41.28,41.28c22.76313,0 41.28,-18.51687 41.28,-41.28c0,-6.31562 -1.43781,-12.3625 -3.9775,-17.7375c19.43063,9.87656 33.40563,24.20094 36.98,28.0575c-5.59,6.04688 -36.53656,37.84 -74.2825,37.84c-37.74594,0 -68.6925,-31.79312 -74.2825,-37.84c3.57438,-3.87 17.61656,-18.18094 37.0875,-28.0575zM86,58.48c-9.50031,0 -17.2,7.69969 -17.2,17.2c0,9.50031 7.69969,17.2 17.2,17.2c9.50031,0 17.2,-7.69969 17.2,-17.2c0,-9.50031 -7.69969,-17.2 -17.2,-17.2z"/><g stroke="#000" stroke-width="7" stroke-linecap="round" stroke-linejoin="round"><path d="M161.68,161.32l-151.36,-151.36"/></g></svg>