<svg version="1.1" xmlns="http://www.w3.org/2000/svg" viewBox="0 0 172 172"><g transform="translate(90,-11) scale(0.8,0.8) rotate(45)"><path d="M121.17764,9.40625c-13.92199,-0.00713 -26.59354,8.03346 -32.51623,20.63281c-5.92269,12.59934 -4.02909,27.48672 4.85913,38.20219l-77.64224,77.64159c-1.31214,1.31196 -1.31229,3.43921 -0.00033,4.75135c1.31196,1.31214 3.43921,1.31229 4.75135,0.00033l8.25081,-8.25081l19.39645,19.23702c1.31068,1.29996 3.42473,1.29878 4.73396,-0.00263l27.70959,-27.53047c0.63331,-0.62926 0.99009,-1.48472 0.99157,-2.37749c0.00148,-0.89277 -0.35247,-1.74941 -0.98369,-2.38075l-19.39645,-19.39711l36.93934,-36.94c12.20153,10.10602 29.58313,11.02491 42.7822,2.26172c13.19907,-8.76319 19.09837,-25.13887 14.52025,-40.30626c-4.57812,-15.16739 -18.55245,-25.54441 -34.39572,-25.54148zM119.9625,16.15125c7.95061,-0.33088 15.69207,2.59631 21.43469,8.10485c5.74262,5.50855 8.98924,13.12156 8.98931,21.07906c-0.0181,16.1242 -13.08465,29.19104 -29.20885,29.2095c-15.89364,-0.00203 -28.86871,-12.71152 -29.19938,-28.60172c-0.33067,-15.8902 12.10444,-29.12847 27.98424,-29.79169zM121.17764,30.23438c-6.10745,0.00003 -11.61349,3.67912 -13.95063,9.3217c-2.33714,5.64258 -1.04512,12.13741 3.27359,16.45594c4.31871,4.31852 10.8136,5.61026 16.45608,3.27287c5.64248,-2.33739 9.32133,-7.84359 9.32109,-13.95104c-0.00976,-8.33542 -6.76471,-15.09007 -15.10013,-15.09947zM120.82924,36.961c2.28136,-0.09494 4.5027,0.74501 6.15048,2.32566c1.64778,1.58065 2.57933,3.76516 2.5793,6.0485c-0.00514,4.62678 -3.7546,8.37624 -8.38138,8.38138c-4.5626,0.00229 -8.28885,-3.64545 -8.3837,-8.20707c-0.09485,-4.56161 3.47655,-8.3611 8.0353,-8.54847zM56.58054,114.68395l17.0134,17.01208l-22.95398,22.80504l-17.00946,-16.86774z"/></g></svg>