<svg version="1.1" xmlns="http://www.w3.org/2000/svg" viewBox="0 0 172 172"><g fill="#444b54"><path d="M86.13438,169.3125c-8.0625,0 -31.04062,-13.30312 -48.10625,-39.775c-1.20937,-1.88125 -0.67187,-4.3 1.20938,-5.50937c1.88125,-1.20938 4.3,-0.67187 5.50937,1.20938c17.2,26.60625 38.02813,36.0125 41.25313,36.0125c2.6875,0 18.40937,-7.12187 34.13125,-26.74062c13.16875,-16.6625 29.025,-45.95625 29.025,-91.24062c0,-1.20938 -0.5375,-2.15 -1.47813,-2.55313l-60.46875,-30.23437c-0.80625,-0.40313 -1.6125,-0.40313 -2.41875,0l-60.33438,30.23437c-0.94063,0.40312 -1.47813,1.34375 -1.47813,2.41875c0,6.58438 0.26875,13.16875 0.94062,19.48438c0.26875,2.15 -1.34375,4.16562 -3.62812,4.43437c-2.15,0.26875 -4.16563,-1.34375 -4.43438,-3.62812c-0.67187,-6.58438 -1.075,-13.4375 -1.075,-20.29063c0,-4.16562 2.28437,-7.79375 5.9125,-9.675l60.46875,-30.23437c2.95625,-1.47813 6.58438,-1.47813 9.675,0l60.46875,30.23438c3.62812,1.88125 5.9125,5.64375 5.9125,9.80937c0,47.56875 -16.79687,78.60937 -30.90625,96.34688c-15.45312,19.35 -33.325,29.69688 -40.17813,29.69688z"/><path d="M29.42813,107.63438c-1.6125,0 -3.09062,-0.94062 -3.7625,-2.55313c-1.74688,-4.43437 -3.225,-9.00312 -4.56875,-13.70625c-0.5375,-2.15 0.67187,-4.3 2.82187,-4.97188c2.15,-0.5375 4.3,0.67188 4.97188,2.82187c1.20937,4.43438 2.6875,8.73438 4.3,12.9c0.80625,2.01563 -0.26875,4.43438 -2.28438,5.24063c-0.5375,0.13438 -1.075,0.26875 -1.47812,0.26875z"/><path d="M79.28125,106.15625c-1.075,0 -2.01562,-0.40313 -2.82188,-1.20938l-16.125,-16.125c-1.6125,-1.6125 -1.6125,-4.16563 0,-5.64375c1.6125,-1.6125 4.16562,-1.6125 5.64375,0l13.30312,13.30313l34.13125,-34.13125c1.6125,-1.6125 4.16562,-1.6125 5.64375,0c1.6125,1.6125 1.6125,4.16562 0,5.64375l-36.95312,36.95312c-0.80625,0.80625 -1.74688,1.20938 -2.82188,1.20938z"></path></g></svg>