<svg version="1.1" xmlns="http://www.w3.org/2000/svg" viewBox="0 0 172 172"><path d="M86,26.875c-20.9625,0 -37.625,16.6625 -37.625,37.625c0,13.10156 6.50354,24.51819 16.50293,31.24219c-19.13661,8.24971 -32.62793,27.31079 -32.62793,49.38281h10.75c0,-23.65 19.35,-43 43,-43c20.9625,0 37.625,-16.6625 37.625,-37.625c0,-20.9625 -16.6625,-37.625 -37.625,-37.625zM86,37.625c15.05,0 26.875,11.825 26.875,26.875c0,15.05 -11.825,26.875 -26.875,26.875c-15.05,0 -26.875,-11.825 -26.875,-26.875c0,-15.05 11.825,-26.875 26.875,-26.875zM112.875,102.125c-5.9125,0 -10.75,4.8375 -10.75,10.75v23.6521l32.25,32.25c2.15,2.15 4.8396,3.2229 7.5271,3.2229c2.6875,0 5.3771,-1.0729 7.5271,-3.2229l19.3479,-19.3479c2.15,-2.15 3.2229,-4.8396 3.2229,-7.5271c0,-2.6875 -1.0729,-5.3771 -3.2229,-7.5271l-32.25,-32.25zM112.875,112.875h19.3479l29.0271,29.0271l-19.3479,19.3479l-29.0271,-29.0271zM123.625,118.25c-2.96853,0 -5.375,2.40647 -5.375,5.375c0,2.96853 2.40647,5.375 5.375,5.375c2.96853,0 5.375,-2.40647 5.375,-5.375c0,-2.96853 -2.40647,-5.375 -5.375,-5.375z"/></svg>