<svg version="1.1" xmlns="http://www.w3.org/2000/svg" viewBox="0 0 172 172"><g fill="#444b54"><path d="M86.13438,169.3125c-8.0625,0 -31.04062,-13.30312 -48.10625,-39.775c-1.20937,-1.88125 -0.67187,-4.3 1.20938,-5.50937c1.88125,-1.20938 4.3,-0.67187 5.50937,1.20938c17.2,26.60625 38.02813,36.0125 41.25313,36.0125c2.6875,0 18.40937,-7.12187 34.13125,-26.74062c13.16875,-16.6625 29.025,-45.95625 29.025,-91.24062c0,-1.20938 -0.5375,-2.15 -1.47813,-2.55313l-60.46875,-30.23437c-0.80625,-0.40313 -1.6125,-0.40313 -2.41875,0l-60.33438,30.23437c-0.94063,0.40312 -1.47813,1.34375 -1.47813,2.41875c0,6.58438 0.26875,13.16875 0.94062,19.48438c0.26875,2.15 -1.34375,4.16562 -3.62812,4.43437c-2.15,0.26875 -4.16563,-1.34375 -4.43438,-3.62812c-0.67187,-6.58438 -1.075,-13.4375 -1.075,-20.29063c0,-4.16562 2.28437,-7.79375 5.9125,-9.675l60.46875,-30.23437c2.95625,-1.47813 6.58438,-1.47813 9.675,0l60.46875,30.23438c3.62812,1.88125 5.9125,5.64375 5.9125,9.80937c0,47.56875 -16.79687,78.60937 -30.90625,96.34688c-15.45312,19.35 -33.325,29.69688 -40.17813,29.69688z"/><path d="M29.42813,107.63438c-1.6125,0 -3.09062,-0.94062 -3.7625,-2.55313c-1.74688,-4.43437 -3.225,-9.00312 -4.56875,-13.70625c-0.5375,-2.15 0.67187,-4.3 2.82187,-4.97188c2.15,-0.5375 4.3,0.67188 4.97188,2.82187c1.20937,4.43438 2.6875,8.73438 4.3,12.9c0.80625,2.01563 -0.26875,4.43438 -2.28438,5.24063c-0.5375,0.13438 -1.075,0.26875 -1.47812,0.26875z"/><g transform="rotate(-225 53 75)translate(0 0)scale(0.45 0.45)"><path d="M51.95833,17.91667c-18.71581,0 -34.04167,15.32587 -34.04167,34.04167c0,18.7158 15.32585,34.04167 34.04167,34.04167c7.69591,0 14.79352,-2.62486 20.51318,-6.9777l33.8527,33.8527l-14.64127,14.64128c-1.87223,1.79752 -2.62641,4.46675 -1.97168,6.97825c0.65472,2.5115 2.61605,4.47282 5.12755,5.12755c2.5115,0.65472 5.18073,-0.09946 6.97825,-1.97168l14.64128,-14.64127l9.57422,9.57422l-9.26627,9.26628c-1.87223,1.79752 -2.62641,4.46675 -1.97168,6.97825c0.65472,2.5115 2.61605,4.47282 5.12755,5.12755c2.5115,0.65472 5.18073,-0.09946 6.97825,-1.97168l9.26628,-9.26627l5.68294,5.68294c1.79752,1.87223 4.46675,2.62641 6.97825,1.97168c2.5115,-0.65472 4.47282,-2.61605 5.12755,-5.12755c0.65472,-2.5115 -0.09946,-5.18073 -1.97168,-6.97825l-9.92415,-9.92416c-0.4535,-0.63107 -1.00662,-1.18419 -1.63769,-1.63769l-18.07064,-18.07064c-0.4535,-0.63107 -1.00662,-1.18419 -1.63769,-1.63769l-38.84277,-38.84277v-0.007c2.62908,-4.82234 4.12923,-10.3393 4.12923,-16.18799c0,-18.7158 -15.32585,-34.04167 -34.04167,-34.04167zM51.95833,32.25c10.96951,0 19.70833,8.73883 19.70833,19.70833c0,4.53907 -1.51379,8.68168 -4.04525,11.99577c-0.36236,0.35435 -0.68611,0.74614 -0.96582,1.16878c-3.59569,4.01809 -8.81842,6.54378 -14.69726,6.54378c-10.96951,0 -19.70833,-8.73883 -19.70833,-19.70833c0,-10.9695 8.73882,-19.70833 19.70833,-19.70833z"/></g></g></svg>