<svg version="1.1" xmlns="http://www.w3.org/2000/svg" viewBox="0 0 172 172"><path d="M86,26.875c-20.9625,0 -37.625,16.6625 -37.625,37.625c0,13.10156 6.50354,24.51819 16.50293,31.24219c-19.13661,8.24971 -32.62793,27.31079 -32.62793,49.38281h10.75c0,-23.65 19.35,-43 43,-43c1.83372,0 3.61536,-0.17319 5.375,-0.41992v24.60742c0,27.95 36.5479,44.0792 38.1604,44.6167l2.1521,1.0708l2.1521,-1.0708c1.6125,-0.5375 38.1604,-16.6667 38.1604,-44.6167v-29.5625h-4.8396c-10.2125,0 -16.1271,-3.7583 -20.9646,-6.4458c-4.8375,-2.15 -9.1333,-4.3042 -14.5083,-4.3042c-5.375,0 -9.675,2.1542 -13.4375,4.3042c-2.72109,1.51172 -5.98546,3.34061 -10.10962,4.67163c9.40098,-6.80342 15.48462,-17.83995 15.48462,-30.47583c0,-20.9625 -16.6625,-37.625 -37.625,-37.625zM86,37.625c15.05,0 26.875,11.825 26.875,26.875c0,15.05 -11.825,26.875 -26.875,26.875c-15.05,0 -26.875,-11.825 -26.875,-26.875c0,-15.05 11.825,-26.875 26.875,-26.875zM131.6875,96.75c2.6875,0 4.8333,1.0729 9.1333,3.2229l1.6167,0.5354c4.3,2.15 10.2125,5.3813 18.8125,6.4563v18.8125c0,17.7375 -23.1125,30.6312 -29.5625,33.8562c-6.45,-3.225 -29.5625,-16.1187 -29.5625,-33.8562v-18.8125c9.1375,-1.075 15.0479,-4.3063 19.3479,-6.4563l1.6167,-0.5354h0.5354h0.5354c3.225,-2.6875 4.8396,-3.2229 7.5271,-3.2229z"/></svg>