<svg version="1.1" xmlns="http://www.w3.org/2000/svg" viewBox="0 0 172 172"><path d="M86,26.875c-20.72315,0 -37.625,16.90185 -37.625,37.625c0,12.95459 6.61377,24.46045 16.62891,31.24219c-19.16943,8.23047 -32.75391,27.25293 -32.75391,49.38281h10.75c0,-11.98877 4.89209,-22.78076 12.76563,-30.57031l9.91016,12.42969l3.02344,3.86328l4.19922,-2.6875l13.10156,-8.73437l13.10156,8.73438l4.53516,2.85547l3.02344,-4.36719l8.56641,-12.93359c8.41943,7.83154 13.77344,18.95947 13.77344,31.41016h10.75c0,-22.12988 -13.58447,-41.15234 -32.75391,-49.38281c10.01514,-6.78174 16.62891,-18.2876 16.62891,-31.24219c0,-20.72315 -16.90185,-37.625 -37.625,-37.625zM86,37.625c14.90723,0 26.875,11.96778 26.875,26.875c0,14.90723 -11.96777,26.875 -26.875,26.875c-14.90722,0 -26.875,-11.96777 -26.875,-26.875c0,-14.90722 11.96778,-26.875 26.875,-26.875zM86,102.125c7.43262,0 14.40332,1.91065 20.49219,5.20703l-5.87891,8.73438l-11.58984,-7.72656l-3.02344,-1.84766l-3.02344,1.84766l-11.92578,8.0625l-6.55078,-8.39844c6.34082,-3.67432 13.62646,-5.87891 21.5,-5.87891z"/></svg>