<svg version="1.1" xmlns="http://www.w3.org/2000/svg" viewBox="0 0 226 226"><g transform="translate(-25.99,-25.99) scale(1.23,1.23)"><path d="M110.35156,32.88477c-22.63531,0 -41.05078,18.41547 -41.05078,41.05078c0,15.15282 8.25365,28.41347 20.50039,35.52544c-31.41826,8.95815 -54.48867,37.92409 -54.48867,72.17768v7.0625c0,2.43745 1.97618,4.41406 4.41406,4.41406h141.25c2.43745,0 4.41406,-1.97662 4.41406,-4.41406v-7.0625c0,-34.25359 -23.07041,-63.21953 -54.48867,-72.17768c12.24674,-7.11197 20.50039,-20.37262 20.50039,-35.52544c0,-22.63531 -18.41547,-41.05078 -41.05078,-41.05078zM110.35156,41.71289c17.76748,0 32.22266,14.45517 32.22266,32.22266c0,17.76748 -14.45517,32.22266 -32.22266,32.22266c-17.76748,0 -32.22266,-14.45517 -32.22266,-32.22266c0,-17.76748 14.45517,-32.22266 32.22266,-32.22266zM110.35156,115.42773c36.50871,0 66.21094,29.70223 66.21094,66.21094v2.64844h-132.42187v-2.64844c0,-36.50871 29.70223,-66.21094 66.21094,-66.21094z"/></g></svg>